<svg width="128" height="128" xmlns="http://www.w3.org/2000/svg">

 <g>
  <title>background</title>
  <rect fill="none" id="canvas_background" height="402" width="582" y="-1" x="-1"/>
 </g>
 <g>
  <title>Layer 1</title>
  <path id="svg_2" fill="#2BACE2" d="m34.00111,50.089474l31.917828,0c7.392166,0 13.405487,-6.456276 13.405487,-14.392975s-6.013321,-14.392977 -13.405487,-14.392977l-31.917828,0c-7.392166,0 -13.405485,6.456278 -13.405485,14.392977s6.013319,14.392975 13.405485,14.392975zm0,-27.415192l31.917828,0c6.688057,0 12.128769,5.841494 12.128769,13.022217s-5.440712,13.022217 -12.128769,13.022217l-31.917828,0c-6.688059,0 -12.128773,-5.841492 -12.128773,-13.022217s5.440714,-13.022217 12.128773,-13.022217z"/>
  <path id="svg_3" fill="#2BACE2" d="m36.807678,44.475792c4.970997,0 9.015476,-3.779766 9.015476,-8.4254s-4.044479,-8.425392 -9.015476,-8.425392s-9.015478,3.779762 -9.015478,8.425392s4.044483,8.4254 9.015478,8.4254zm0,-15.369404c4.09679,0 7.43034,3.11536 7.43034,6.944004s-3.333549,6.944008 -7.43034,6.944008s-7.43034,-3.115356 -7.43034,-6.944008s3.332756,-6.944004 7.43034,-6.944004z"/>
  <path id="svg_6" fill="#2BACE2" d="m62.05603,44.239826c4.970993,0 9.015472,-3.779766 9.015472,-8.4254s-4.044479,-8.425392 -9.015472,-8.425392s-9.01548,3.779762 -9.01548,8.425392s4.044487,8.4254 9.01548,8.4254zm0,-15.369404c4.096786,0 7.430344,3.11536 7.430344,6.944004s-3.333557,6.944008 -7.430344,6.944008s-7.43034,-3.115356 -7.43034,-6.944008s3.332756,-6.944004 7.43034,-6.944004z"/>
 </g>
</svg>