<svg width="512.004" height="512.004" xmlns="http://www.w3.org/2000/svg">

 <g>
  <title>background</title>
  <rect fill="none" id="canvas_background" height="402" width="582" y="-1" x="-1"/>
 </g>
 <g>
  <title>Layer 1</title>
  <path id="svg_4" d="m292.010803,242.811005c1.51001,2.953003 4.514008,4.658997 7.619995,4.658997c1.296997,0 2.628021,-0.298996 3.865997,-0.930008c0.503021,-0.255997 50.731018,-25.770996 75.503021,-33.595993c4.488983,-1.425003 6.97998,-6.220993 5.554993,-10.709c-1.417023,-4.488998 -6.178009,-6.988998 -10.709015,-5.572006c-26.095001,8.251999 -75.980988,33.596008 -78.096985,34.671021c-4.199005,2.13298 -5.871002,7.270981 -3.738007,11.47699z"/>
  <path id="svg_5" d="m299.630798,145.070999c1.296997,0 2.627991,-0.298996 3.865997,-0.929993c0.502991,-0.256012 50.730988,-25.771004 75.502991,-33.596008c4.489014,-1.424995 6.980011,-6.221001 5.555023,-10.709c-1.417023,-4.488998 -6.178009,-6.988998 -10.709015,-5.571999c-26.095001,8.251999 -75.980988,33.596001 -78.096985,34.670998c-4.198029,2.132996 -5.871002,7.270004 -3.738007,11.477005c1.509979,2.951996 4.514008,4.658997 7.619995,4.658997z"/>
  <path id="svg_6" d="m504.422791,128.003998c-4.718994,0 -8.53299,3.822998 -8.53299,8.533005l0,332.799973c0,14.114014 -11.486023,25.600006 -25.600006,25.600006l-204.800018,0l0,-19.634979c12.442017,-4.35202 44.851013,-14.498016 76.800018,-14.498016c74.333984,0 124.80899,16.460999 125.311981,16.631012c2.568024,0.852997 5.436005,0.427002 7.680023,-1.178009c2.22699,-1.604004 3.540985,-4.181 3.540985,-6.92099l0,-375.464996c0,-4.001999 -2.77301,-7.467003 -6.682007,-8.329002c0,0 -6.690002,-1.492996 -18.125,-3.593002c-4.617004,-0.852997 -9.078979,2.219002 -9.932983,6.844002c-0.852997,4.641998 2.209991,9.087997 6.843994,9.941002c4.360992,0.802002 8.013,1.510002 10.82901,2.073997l0,357.188004c-19.337006,-5.069 -62.276001,-14.259003 -119.46701,-14.259003c-37.179993,0 -73.702026,12.210999 -85.001007,16.349976c-10.043991,-4.436981 -40.404999,-16.349976 -77.133011,-16.349976c-58.777985,0 -107.195984,9.694 -127.999989,14.617981l0,-357.879982c17.041004,-4.189995 67.371006,-15.138 127.999989,-15.138c31.113022,0 57.796021,9.685005 68.267014,14.063004l0,335.803978c0,3.071991 1.654999,5.914001 4.325989,7.424011c2.671005,1.518982 5.964996,1.475983 8.60199,-0.111023c0.845001,-0.502991 85.393005,-51.003998 160.435028,-76.014984c3.48999,-1.169006 5.836975,-4.420013 5.836975,-8.097992l0,-349.866992c0,-2.799 -1.373993,-5.419 -3.677979,-7.014c-2.287018,-1.596 -5.222015,-1.963 -7.859009,-0.981c-68.274994,25.608 -137.359985,68.598999 -138.051971,69.026001c-3.993988,2.5 -5.213989,7.764999 -2.713989,11.759003c2.492004,3.993996 7.756989,5.213997 11.759003,2.713997c0.630981,-0.401001 60.731995,-37.793999 123.47699,-63.027l0,331.281013c-58.248993,20.240997 -119.06601,53.290985 -145.067017,68.086975l0,-326.510986c0,-3.234001 -1.825989,-6.187004 -4.718994,-7.637001c-1.467987,-0.724998 -36.436996,-17.962997 -80.613998,-17.962997c-77.106995,0 -136.387989,16.682999 -138.880001,17.398994c-3.660999,1.041 -6.187,4.395004 -6.187,8.201004l0,375.46701c0,2.67099 1.263,5.196991 3.388,6.809998c1.501999,1.13501 3.311001,1.723999 5.146,1.723999c0.785,0 1.57,-0.110992 2.338001,-0.333008c0.589001,-0.161987 59.596992,-16.733978 134.195,-16.733978c31.198013,0 57.856003,9.710999 68.267014,14.070984l0,20.062012l-204.800003,0c-14.114,0 -25.6,-11.486023 -25.6,-25.600006l0,-332.799988c0,-4.709991 -3.823001,-8.53299 -8.533001,-8.53299s-8.533,3.822998 -8.533,8.53299l0,332.799988c0,23.526001 19.139991,42.666992 42.666989,42.666992l426.666996,0c23.526001,0 42.666992,-19.139984 42.666992,-42.666992l0,-332.799988c-0.000977,-4.711029 -3.815002,-8.534027 -8.533997,-8.534027z"/>
  <path id="svg_7" d="m292.010803,191.610992c1.51001,2.953003 4.514008,4.658997 7.619995,4.658997c1.296997,0 2.628021,-0.298996 3.865997,-0.929993c0.503021,-0.256012 50.731018,-25.771011 75.503021,-33.596008c4.488983,-1.425003 6.97998,-6.220993 5.554993,-10.709c-1.417023,-4.488998 -6.178009,-6.988998 -10.709015,-5.571991c-26.095001,8.251999 -75.980988,33.595993 -78.096985,34.67099c-4.199005,2.133011 -5.871002,7.271011 -3.738007,11.477005z"/>
  <path id="svg_8" d="m292.010803,294.010986c1.51001,2.953003 4.514008,4.658997 7.619995,4.658997c1.296997,0 2.628021,-0.298981 3.865997,-0.929993c0.503021,-0.256012 50.731018,-25.770996 75.503021,-33.596008c4.488983,-1.424988 6.97998,-6.220978 5.554993,-10.708984c-1.417023,-4.489014 -6.178009,-6.989014 -10.709015,-5.572006c-26.095001,8.251999 -75.980988,33.595993 -78.096985,34.671005c-4.199005,2.132996 -5.871002,7.270996 -3.738007,11.47699z"/>
  <path id="svg_9" d="m207.701797,158.365997c-52.693008,-12.36499 -112.571999,3.388 -115.089005,4.061996c-4.547997,1.220001 -7.252998,5.896011 -6.032997,10.453003c1.024002,3.814011 4.471001,6.322998 8.235001,6.322998c0.734001,0 1.475998,-0.093994 2.219002,-0.289993c0.571999,-0.162003 58.222992,-15.326004 106.778,-3.934006c4.565002,1.067001 9.181992,-1.774994 10.257004,-6.365997c1.07399,-4.582001 -1.776001,-9.173004 -6.367004,-10.248001z"/>
  <path id="svg_10" d="m207.701797,209.565994c-52.693008,-12.356003 -112.571999,3.388 -115.089005,4.061996c-4.547997,1.220001 -7.252998,5.897003 -6.032997,10.453003c1.024002,3.813995 4.471001,6.322998 8.235001,6.322998c0.734001,0 1.475998,-0.093994 2.219002,-0.290009c0.571999,-0.161987 58.222992,-15.325989 106.778,-3.93399c4.565002,1.067001 9.181992,-1.775009 10.257004,-6.365997c1.07399,-4.582001 -1.776001,-9.172989 -6.367004,-10.248001z"/>
  <path id="svg_11" d="m292.010803,345.210999c1.51001,2.953003 4.514008,4.658997 7.619995,4.658997c1.296997,0 2.628021,-0.298981 3.865997,-0.929993c0.503021,-0.256012 50.731018,-25.770996 75.503021,-33.596008c4.488983,-1.424988 6.97998,-6.221008 5.554993,-10.708984c-1.417023,-4.488007 -6.178009,-6.989014 -10.709015,-5.572021c-26.095001,8.252014 -75.980988,33.596008 -78.096985,34.671021c-4.199005,2.132996 -5.871002,7.270996 -3.738007,11.47699z"/>
  <path id="svg_12" d="m207.701797,260.765991c-52.693008,-12.356003 -112.571999,3.378998 -115.089005,4.062012c-4.547997,1.220001 -7.252998,5.896973 -6.032997,10.452972c1.024002,3.814026 4.471001,6.332001 8.235001,6.332001c0.734001,0 1.475998,-0.10199 2.219002,-0.298981c0.571999,-0.162018 58.222992,-15.326019 106.778,-3.93399c4.565002,1.066986 9.181992,-1.775024 10.257004,-6.366028c1.07399,-4.58197 -1.776001,-9.172974 -6.367004,-10.247986z"/>
  <path id="svg_13" d="m207.701797,363.165985c-52.693008,-12.36499 -112.571999,3.388 -115.089005,4.061981c-4.547997,1.220001 -7.252998,5.897003 -6.032997,10.453003c1.024002,3.814026 4.471001,6.332001 8.235001,6.332001c0.734001,0 1.475998,-0.10199 2.219002,-0.298981c0.571999,-0.162018 58.222992,-15.326019 106.778,-3.934021c4.565002,1.058014 9.181992,-1.774994 10.257004,-6.365997c1.07399,-4.58197 -1.776001,-9.172974 -6.367004,-10.247986z"/>
  <path id="svg_14" d="m207.701797,311.966003c-52.693008,-12.36499 -112.571999,3.378998 -115.089005,4.062012c-4.547997,1.219971 -7.252998,5.896973 -6.032997,10.452972c1.024002,3.814026 4.471001,6.332001 8.235001,6.332001c0.734001,0 1.475998,-0.10199 2.219002,-0.298981c0.571999,-0.162018 58.222992,-15.326019 106.778,-3.934021c4.565002,1.067017 9.181992,-1.774994 10.257004,-6.365997c1.07399,-4.582001 -1.776001,-9.173004 -6.367004,-10.247986z"/>
 </g>
</svg>