<svg width="128" height="128" xmlns="http://www.w3.org/2000/svg">

 <g>
  <title>background</title>
  <rect fill="none" id="canvas_background" height="402" width="582" y="-1" x="-1"/>
 </g>
 <g>
  <title>Layer 1</title>
  <path id="svg_2" fill="#2BACE2" d="m39.195938,60l50,0c11.580002,0 21,-9.419998 21,-21s-9.419998,-21 -21,-21l-50,0c-11.579998,0 -20.999998,9.42 -20.999998,21s9.42,21 20.999998,21zm0,-40l50,0c10.476997,0 19,8.523001 19,19s-8.523003,19 -19,19l-50,0c-10.476997,0 -18.999998,-8.522999 -18.999998,-19s8.523001,-19 18.999998,-19z"/>
  <path id="svg_3" fill="#2BACE2" d="m39.167,50.375c6.271999,0 11.375,-5.103001 11.375,-11.375s-5.103001,-11.375 -11.375,-11.375s-11.375,5.103001 -11.375,11.375s5.103001,11.375 11.375,11.375zm0,-20.75c5.168999,0 9.375,4.206001 9.375,9.375s-4.206001,9.375 -9.375,9.375s-9.375,-4.206001 -9.375,-9.375s4.205002,-9.375 9.375,-9.375z"/>
  <path id="svg_4" fill="#2BACE2" d="m89,68l-50,0c-11.58,0 -21,9.419998 -21,21s9.42,21 21,21l50,0c11.580002,0 21,-9.419998 21,-21s-9.419998,-21 -21,-21zm0,40l-50,0c-10.476999,0 -19,-8.523003 -19,-19s8.523001,-19 19,-19l50,0c10.476997,0 19,8.523003 19,19s-8.523003,19 -19,19z"/>
  <path id="svg_5" fill="#2BACE2" d="m88.834,77.625c-6.273003,0 -11.375,5.103996 -11.375,11.375s5.101997,11.375 11.375,11.375c6.271004,0 11.375,-5.103996 11.375,-11.375s-5.103996,-11.375 -11.375,-11.375zm0,20.75c-5.169998,0 -9.375,-4.205002 -9.375,-9.375s4.205002,-9.375 9.375,-9.375c5.167999,0 9.375,4.205002 9.375,9.375s-4.207001,9.375 -9.375,9.375z"/>
 </g>
</svg>