<?xml version="1.0" encoding="UTF-8"?>
<svg xmlns="http://www.w3.org/2000/svg" xmlns:xlink="http://www.w3.org/1999/xlink" width="80pt" height="80pt" viewBox="0 0 80 80" version="1.1">
<g id="surface1">
<path style=" stroke:none;fill-rule:nonzero;fill:rgb(0%,0%,0%);fill-opacity:1;" d="M 45.625 37.9375 C 45.863281 38.402344 46.332031 38.667969 46.816406 38.667969 C 47.019531 38.667969 47.226562 38.621094 47.421875 38.523438 C 47.5 38.480469 55.347656 34.496094 59.21875 33.273438 C 59.921875 33.050781 60.308594 32.300781 60.085938 31.597656 C 59.867188 30.898438 59.121094 30.507812 58.414062 30.730469 C 54.335938 32.019531 46.542969 35.976562 46.210938 36.144531 C 45.554688 36.480469 45.292969 37.28125 45.625 37.9375 Z M 45.625 37.9375 "/>
<path style=" stroke:none;fill-rule:nonzero;fill:rgb(0%,0%,0%);fill-opacity:1;" d="M 46.816406 22.667969 C 47.019531 22.667969 47.226562 22.621094 47.421875 22.523438 C 47.5 22.480469 55.347656 18.496094 59.21875 17.273438 C 59.921875 17.050781 60.308594 16.300781 60.085938 15.597656 C 59.867188 14.898438 59.121094 14.507812 58.414062 14.730469 C 54.335938 16.019531 46.542969 19.976562 46.210938 20.144531 C 45.554688 20.480469 45.292969 21.28125 45.625 21.9375 C 45.863281 22.402344 46.332031 22.667969 46.816406 22.667969 Z M 46.816406 22.667969 "/>
<path style=" stroke:none;fill-rule:nonzero;fill:rgb(0%,0%,0%);fill-opacity:1;" d="M 78.816406 20 C 78.078125 20 77.484375 20.597656 77.484375 21.332031 L 77.484375 73.332031 C 77.484375 75.539062 75.6875 77.332031 73.484375 77.332031 L 41.484375 77.332031 L 41.484375 74.265625 C 43.425781 73.585938 48.492188 72 53.484375 72 C 65.097656 72 72.984375 74.574219 73.0625 74.597656 C 73.464844 74.734375 73.914062 74.664062 74.261719 74.414062 C 74.609375 74.164062 74.816406 73.761719 74.816406 73.332031 L 74.816406 14.667969 C 74.816406 14.042969 74.382812 13.5 73.773438 13.367188 C 73.773438 13.367188 72.726562 13.132812 70.941406 12.804688 C 70.21875 12.671875 69.519531 13.152344 69.386719 13.875 C 69.253906 14.597656 69.734375 15.292969 70.457031 15.425781 C 71.140625 15.550781 71.710938 15.664062 72.148438 15.75 L 72.148438 71.5625 C 69.128906 70.769531 62.417969 69.332031 53.484375 69.332031 C 47.671875 69.332031 41.964844 71.242188 40.203125 71.886719 C 38.632812 71.195312 33.886719 69.332031 28.148438 69.332031 C 18.964844 69.332031 11.398438 70.847656 8.148438 71.617188 L 8.148438 15.699219 C 10.8125 15.042969 18.675781 13.332031 28.148438 13.332031 C 33.011719 13.332031 37.179688 14.847656 38.816406 15.53125 L 38.816406 68 C 38.816406 68.480469 39.074219 68.925781 39.492188 69.160156 C 39.910156 69.398438 40.425781 69.390625 40.835938 69.144531 C 40.96875 69.066406 54.179688 61.175781 65.902344 57.265625 C 66.449219 57.082031 66.816406 56.574219 66.816406 56 L 66.816406 1.332031 C 66.816406 0.898438 66.601562 0.488281 66.242188 0.238281 C 65.882812 -0.0117188 65.425781 -0.0703125 65.011719 0.0859375 C 54.34375 4.085938 43.550781 10.804688 43.441406 10.871094 C 42.820312 11.261719 42.628906 12.082031 43.019531 12.707031 C 43.40625 13.332031 44.230469 13.523438 44.855469 13.132812 C 44.953125 13.070312 54.34375 7.226562 64.148438 3.285156 L 64.148438 55.046875 C 55.046875 58.207031 45.546875 63.371094 41.484375 65.683594 L 41.484375 14.667969 C 41.484375 14.160156 41.195312 13.699219 40.746094 13.472656 C 40.515625 13.359375 35.050781 10.667969 28.148438 10.667969 C 16.101562 10.667969 6.839844 13.273438 6.449219 13.386719 C 5.878906 13.546875 5.484375 14.074219 5.484375 14.667969 L 5.484375 73.335938 C 5.484375 73.75 5.679688 74.144531 6.011719 74.398438 C 6.246094 74.574219 6.527344 74.667969 6.816406 74.667969 C 6.9375 74.667969 7.0625 74.648438 7.179688 74.617188 C 7.273438 74.589844 16.492188 72 28.148438 72 C 33.023438 72 37.1875 73.519531 38.816406 74.199219 L 38.816406 77.335938 L 6.816406 77.335938 C 4.609375 77.335938 2.816406 75.539062 2.816406 73.335938 L 2.816406 21.335938 C 2.816406 20.597656 2.21875 20 1.484375 20 C 0.746094 20 0.148438 20.597656 0.148438 21.335938 L 0.148438 73.335938 C 0.148438 77.011719 3.140625 80 6.816406 80 L 73.484375 80 C 77.160156 80 80.148438 77.011719 80.148438 73.335938 L 80.148438 21.335938 C 80.148438 20.597656 79.554688 20 78.816406 20 Z M 78.816406 20 "/>
<path style=" stroke:none;fill-rule:nonzero;fill:rgb(0%,0%,0%);fill-opacity:1;" d="M 45.625 29.9375 C 45.863281 30.402344 46.332031 30.667969 46.816406 30.667969 C 47.019531 30.667969 47.226562 30.621094 47.421875 30.523438 C 47.5 30.480469 55.347656 26.496094 59.21875 25.273438 C 59.921875 25.050781 60.308594 24.300781 60.085938 23.597656 C 59.867188 22.898438 59.121094 22.507812 58.414062 22.730469 C 54.335938 24.019531 46.542969 27.976562 46.210938 28.144531 C 45.554688 28.480469 45.292969 29.28125 45.625 29.9375 Z M 45.625 29.9375 "/>
<path style=" stroke:none;fill-rule:nonzero;fill:rgb(0%,0%,0%);fill-opacity:1;" d="M 45.625 45.9375 C 45.863281 46.402344 46.332031 46.667969 46.816406 46.667969 C 47.019531 46.667969 47.226562 46.621094 47.421875 46.523438 C 47.5 46.480469 55.347656 42.496094 59.21875 41.273438 C 59.921875 41.050781 60.308594 40.300781 60.085938 39.597656 C 59.867188 38.898438 59.121094 38.507812 58.414062 38.730469 C 54.335938 40.019531 46.542969 43.976562 46.210938 44.144531 C 45.554688 44.480469 45.292969 45.28125 45.625 45.9375 Z M 45.625 45.9375 "/>
<path style=" stroke:none;fill-rule:nonzero;fill:rgb(0%,0%,0%);fill-opacity:1;" d="M 32.453125 24.746094 C 24.21875 22.8125 14.863281 25.273438 14.472656 25.378906 C 13.761719 25.570312 13.335938 26.300781 13.527344 27.011719 C 13.6875 27.609375 14.226562 28 14.816406 28 C 14.929688 28 15.046875 27.984375 15.160156 27.957031 C 15.25 27.929688 24.257812 25.5625 31.84375 27.339844 C 32.558594 27.507812 33.28125 27.0625 33.449219 26.347656 C 33.617188 25.628906 33.171875 24.914062 32.453125 24.746094 Z M 32.453125 24.746094 "/>
<path style=" stroke:none;fill-rule:nonzero;fill:rgb(0%,0%,0%);fill-opacity:1;" d="M 32.453125 32.746094 C 24.21875 30.8125 14.863281 33.273438 14.472656 33.378906 C 13.761719 33.570312 13.335938 34.300781 13.527344 35.011719 C 13.6875 35.609375 14.226562 36 14.816406 36 C 14.929688 36 15.046875 35.984375 15.160156 35.957031 C 15.25 35.929688 24.257812 33.5625 31.84375 35.339844 C 32.558594 35.507812 33.28125 35.0625 33.449219 34.347656 C 33.617188 33.628906 33.171875 32.914062 32.453125 32.746094 Z M 32.453125 32.746094 "/>
<path style=" stroke:none;fill-rule:nonzero;fill:rgb(0%,0%,0%);fill-opacity:1;" d="M 45.625 53.9375 C 45.863281 54.402344 46.332031 54.667969 46.816406 54.667969 C 47.019531 54.667969 47.226562 54.621094 47.421875 54.523438 C 47.5 54.480469 55.347656 50.496094 59.21875 49.273438 C 59.921875 49.050781 60.308594 48.300781 60.085938 47.597656 C 59.867188 46.898438 59.121094 46.507812 58.414062 46.730469 C 54.335938 48.019531 46.542969 51.976562 46.210938 52.144531 C 45.554688 52.480469 45.292969 53.28125 45.625 53.9375 Z M 45.625 53.9375 "/>
<path style=" stroke:none;fill-rule:nonzero;fill:rgb(0%,0%,0%);fill-opacity:1;" d="M 32.453125 40.746094 C 24.21875 38.8125 14.863281 41.273438 14.472656 41.378906 C 13.761719 41.570312 13.335938 42.300781 13.527344 43.011719 C 13.6875 43.609375 14.226562 44.003906 14.816406 44.003906 C 14.929688 44.003906 15.046875 43.984375 15.160156 43.957031 C 15.25 43.929688 24.257812 41.5625 31.84375 43.339844 C 32.558594 43.507812 33.28125 43.0625 33.449219 42.347656 C 33.617188 41.628906 33.171875 40.914062 32.453125 40.746094 Z M 32.453125 40.746094 "/>
<path style=" stroke:none;fill-rule:nonzero;fill:rgb(0%,0%,0%);fill-opacity:1;" d="M 32.453125 56.746094 C 24.21875 54.8125 14.863281 57.273438 14.472656 57.378906 C 13.761719 57.570312 13.335938 58.300781 13.527344 59.011719 C 13.6875 59.609375 14.226562 60.003906 14.816406 60.003906 C 14.929688 60.003906 15.046875 59.984375 15.160156 59.957031 C 15.25 59.929688 24.257812 57.5625 31.84375 59.339844 C 32.558594 59.507812 33.28125 59.0625 33.449219 58.347656 C 33.617188 57.628906 33.171875 56.914062 32.453125 56.746094 Z M 32.453125 56.746094 "/>
<path style=" stroke:none;fill-rule:nonzero;fill:rgb(0%,0%,0%);fill-opacity:1;" d="M 32.453125 48.746094 C 24.21875 46.8125 14.863281 49.273438 14.472656 49.378906 C 13.761719 49.570312 13.335938 50.300781 13.527344 51.011719 C 13.6875 51.609375 14.226562 52.003906 14.816406 52.003906 C 14.929688 52.003906 15.046875 51.984375 15.160156 51.957031 C 15.25 51.929688 24.257812 49.5625 31.84375 51.339844 C 32.558594 51.507812 33.28125 51.0625 33.449219 50.347656 C 33.617188 49.628906 33.171875 48.914062 32.453125 48.746094 Z M 32.453125 48.746094 "/>
</g>
</svg>
