<svg width="128" height="128" xmlns="http://www.w3.org/2000/svg">

 <g>
  <title>background</title>
  <rect fill="none" id="canvas_background" height="402" width="582" y="-1" x="-1"/>
 </g>
 <g>
  <title>Layer 1</title>
  <path id="svg_2" fill="#2BACE2" d="m29.799423,42.3027l21.915211,0c5.075562,0 9.204388,-4.656818 9.204388,-10.381443s-4.128826,-10.381445 -9.204388,-10.381445l-21.915211,0c-5.07556,0 -9.204386,4.65682 -9.204386,10.381445s4.128826,10.381443 9.204386,10.381443zm0,-19.774178l21.915211,0c4.59211,0 8.327774,4.213385 8.327774,9.392735s-3.735664,9.392735 -8.327774,9.392735l-21.915211,0c-4.592112,0 -8.327778,-4.213383 -8.327778,-9.392735s3.735666,-9.392735 8.327778,-9.392735z"/>
  <path id="svg_3" fill="#2BACE2" d="m31.380728,38.104874c3.539827,0 6.419889,-2.827057 6.419889,-6.301741s-2.880062,-6.301731 -6.419889,-6.301731s-6.419897,2.827055 -6.419897,6.301731s2.880064,6.301741 6.419897,6.301741zm0,-11.495476c2.917307,0 5.291121,2.33012 5.291121,5.193735s-2.373814,5.193739 -5.291121,5.193739s-5.291124,-2.330116 -5.291124,-5.193739s2.373245,-5.193735 5.291124,-5.193735z"/>
  <path id="svg_8" fill="#2BACE2" d="m49.078171,38.340839c3.539829,0 6.419888,-2.827057 6.419888,-6.301739s-2.880058,-6.301733 -6.419888,-6.301733s-6.419895,2.827055 -6.419895,6.301733s2.880062,6.301739 6.419895,6.301739zm0,-11.495476c2.917309,0 5.291119,2.33012 5.291119,5.193737s-2.37381,5.193737 -5.291119,5.193737s-5.291126,-2.330116 -5.291126,-5.193737s2.373245,-5.193737 5.291126,-5.193737z"/>
 </g>
</svg>