<?xml version="1.0" ?><svg id="Layer_1" style="enable-background:new 0 0 60 78;" version="1.1" viewBox="0 0 60 78" xml:space="preserve" xmlns="http://www.w3.org/2000/svg" xmlns:xlink="http://www.w3.org/1999/xlink"><title/><g id="Layer_2"><g id="Layer_3"><path d="M54.2,54.4l-5.1-6.3c-0.5-0.7-0.8-1.5-0.8-2.4v-13c0-8.1-5.4-15.3-13.2-17.5v-5.1c0-2.8-2.3-5-5-5s-5,2.3-5,5v5    c-7.9,2.3-13.3,9.5-13.2,17.6v13c0,0.9-0.3,1.7-0.8,2.4l-5.1,6.3c-0.4,0.5-0.7,1.2-0.7,1.9v7.9h49.8v-7.9    C54.9,55.6,54.6,54.9,54.2,54.4z M28,10.1c0-1.1,0.9-2,2-2s2,0.9,2,2v4.5c-1.4-0.2-2.7-0.2-4.1,0V10.1z M51.9,61.1H8.1v-4.8    l5.1-6.3c1-1.2,1.5-2.7,1.5-4.3v-13c0-8.4,6.8-15.3,15.3-15.3s15.3,6.8,15.3,15.3v13c0,1.6,0.5,3.1,1.5,4.3l5.1,6.3V61.1z"/><path d="M28,20.8v3c6.1,0,11.1,5,11.1,11.1c0,0,0,0,0,0h3C42.1,27.1,35.8,20.8,28,20.8C28,20.8,28,20.8,28,20.8z"/><path d="M30,69.9c-2.9,0-5.2-2.3-5.2-5.2h-3c0,4.5,3.7,8.2,8.2,8.2c4.5,0,8.2-3.7,8.2-8.2h-3C35.2,67.6,32.9,69.9,30,69.9z"/></g></g></svg>